<svg xmlns="http://www.w3.org/2000/svg" width="3000" height="3000" viewBox="0 0 3000 3000">
  <defs>
    <style>
      .cls-1 {
        fill: #5b801a;
        fill-rule: evenodd;
      }
    </style>
  </defs>
  <path id="Color_Fill_3" data-name="Color Fill 3" class="cls-1" d="M924,1078c93.73-.17,97.1,57.89,118,130q43.5,167.985,87,336,16.5,64.995,33,130c4.36,18.5,1.39,40.6-10,49-15.55,11.46-44.21,3.99-59-3q-63.495-34.5-127-69-56.994,95.985-114,192c-9.856,16.32-39.685,52.89-22,75,13.084,16.36,97.967,10.31,130,10q122.49-1.005,245-2c39.8,0,84.02-6.82,114,5,88.35,34.82,66,155.26,66,272v62q0.495,34.5,1,69c0,71.51-4.3,112.78-48,139-37.86,22.72-95.95,5.05-149,13q-55.5.495-111,1c-86.105,0-174.2,4.87-241-16-105.057-32.83-125.84-115.37-176-201-62.009-105.85-116.268-216.55-179-323-48.9-82.97-97.879-163.93-117-276-10.5-61.53,23.225-101.24,41-141l53-106c6.98-13.36,18.144-27.15,22-43-26.5-9.03-98.568-51.09-116-70-9.886-10.72-18.562-30.52-7-46,20.907-27.99,114.849-43.33,154-57q137.487-44.49,275-89Q855.493,1098.495,924,1078Z"/>
  <path id="Color_Fill_2" data-name="Color Fill 2" class="cls-1" d="M1576,1102h0Zm4,1h0Zm-386,53c2.67,0.33,5.33.67,8,1C1199.33,1156.67,1196.67,1156.33,1194,1156Zm1153,39c34.36-.02,58.79,6.27,75,24,34.14,37.35,52.19,95.04,77,141,23.31,43.19,43.88,89.88,69,133,17.31,29.72,37.79,61.93,47,98,11.67,45.72-2.7,102.83-14,139-26.21,83.93-67.54,160.04-109,231-50.16,85.84-89.47,177.49-140,262-51.44,86.03-83.83,182.75-171,233-45.78,26.39-112.88,24-184,24q-33,.495-66,1c1,55.09,16.15,157.54-25,175-15.96,6.77-31.11-5.61-39-11-31.86-21.77-57.4-52.64-86-78q-123.495-113.985-247-228c-38.8-30.79-91.02-66.28-103-123-12.49-59.16,44.81-96,70-121l277-265,86-80c10.05-6.73,30.03-11,41-3,39.53,28.85,7.94,121.64,22,177q75.99-.495,152-1c25.38,0.01,57.1,4.08,68-10,21.22-27.41-31.63-98.56-42-118q-61.5-111.495-123-223c-17.19-29.24-44.58-68.32-28-116,17.02-48.94,61.88-64.32,102-90C2150.59,1305.46,2242.31,1244.72,2347,1195Z"/>
  <path id="Color_Fill_1" data-name="Color Fill 1" class="cls-1" d="M1645,428c129.31-.677,278.68-13.081,344,51,37.36,36.653,63.37,91.229,91,137,8.54,14.149,14.25,32.983,26,44q57.99-33.5,116-67c14.35-6.09,39.51-11.126,53-1,25.47,19.124-5.77,124.853-14,155q-39,169.484-78,339c-15.04,59.69-17.72,123-69,146-54.99,24.66-139.31-13.94-188-29l-303-88c-34.18-9.9-111.94-22.53-130-46-12.08-15.7-3.83-34.62,6-47,13.27-16.71,104.01-71.371,127-79-5.55-25.5-27.41-52.435-40-74-14.31-24.525-41.13-97.817-68-104-33.39-7.683-69.44,74.025-82,95q-59.49,95.991-119,192c-23.16,38.22-38.98,80.56-83,98-40.77,16.15-76.88-2.83-104-19q-90.495-52.995-181-106c-51.359-31.045-141.421-62.2-160-123-6.6-21.611-2.038-50.592,6-67l90-140c63.984-92.449,104.356-211.358,223-249,96.64-30.662,272.25-10.88,376-17Zm304,1058c0.33,0.67.67,1.33,1,2C1949.67,1487.33,1949.33,1486.67,1949,1486ZM986,1660h0Zm1165,222c0.33,0.67.67,1.33,1,2C2151.67,1883.33,2151.33,1882.67,2151,1882Z"/>
</svg>
